<svg width="22" height="22" viewBox="0 0 22 22" fill="none" xmlns="http://www.w3.org/2000/svg">
<path d="M15.1797 10.75L21.0391 4.89062C21.8008 4.1875 21.8008 3.01562 21.0391 2.3125L19.75 1.02344C19.0469 0.261719 17.875 0.261719 17.1719 1.02344L11.3125 6.88281L5.39453 1.02344C4.69141 0.261719 3.51953 0.261719 2.81641 1.02344L1.52734 2.3125C0.765625 3.01562 0.765625 4.1875 1.52734 4.89062L7.38672 10.75L1.52734 16.668C0.765625 17.3711 0.765625 18.543 1.52734 19.2461L2.81641 20.5352C3.51953 21.2969 4.69141 21.2969 5.39453 20.5352L11.3125 14.6758L17.1719 20.5352C17.875 21.2969 19.0469 21.2969 19.75 20.5352L21.0391 19.2461C21.8008 18.543 21.8008 17.3711 21.0391 16.668L15.1797 10.75Z" fill="white"/>
</svg>
