<svg width="27" height="24" viewBox="0 0 27 24" fill="none" xmlns="http://www.w3.org/2000/svg">
<path d="M0.9375 4.48438H25.3125C25.7812 4.48438 26.25 4.07422 26.25 3.54688V1.20312C26.25 0.734375 25.7812 0.265625 25.3125 0.265625H0.9375C0.410156 0.265625 0 0.734375 0 1.20312V3.54688C0 4.07422 0.410156 4.48438 0.9375 4.48438ZM0.9375 13.8594H25.3125C25.7812 13.8594 26.25 13.4492 26.25 12.9219V10.5781C26.25 10.1094 25.7812 9.64062 25.3125 9.64062H0.9375C0.410156 9.64062 0 10.1094 0 10.5781V12.9219C0 13.4492 0.410156 13.8594 0.9375 13.8594ZM0.9375 23.2344H25.3125C25.7812 23.2344 26.25 22.8242 26.25 22.2969V19.9531C26.25 19.4844 25.7812 19.0156 25.3125 19.0156H0.9375C0.410156 19.0156 0 19.4844 0 19.9531V22.2969C0 22.8242 0.410156 23.2344 0.9375 23.2344Z" fill="#474747"/>
</svg>
