<svg width="34" height="31" viewBox="0 0 34 31" fill="none" xmlns="http://www.w3.org/2000/svg">
<path d="M32.8711 10.0664L24.4336 1.62891C22.6758 -0.128906 19.6875 1.10156 19.6875 3.62109V6.96094C17.168 7.07812 14.707 7.3125 12.5977 8.01562C10.5469 8.66016 8.90625 9.59766 7.73438 10.8867C6.32812 12.4688 5.625 14.4023 5.625 16.6875C5.625 20.3203 7.55859 23.3086 10.5469 25.1836C12.7734 26.5898 15.5859 24.4805 14.707 21.9023C13.8281 19.1484 13.7109 17.8008 19.6875 17.332V20.4375C19.6875 22.957 22.6758 24.1875 24.4336 22.4297L32.8711 13.9922C33.9844 12.9375 33.9844 11.1211 32.8711 10.0664ZM22.5 20.4375V14.4023C14.9414 14.5195 9.72656 15.75 12.0703 22.7812C10.3125 21.7266 8.4375 19.793 8.4375 16.6875C8.4375 10.3008 15.9961 9.71484 22.5 9.71484V3.5625L30.9375 12L22.5 20.4375ZM23.9062 25.418C23.6133 25.4766 23.4375 25.7695 23.4375 26.1211V27.5859C23.4375 27.8203 23.2617 27.9375 23.0859 27.9375H3.16406C2.92969 27.9375 2.8125 27.8203 2.8125 27.5859V7.66406C2.8125 7.48828 2.92969 7.3125 3.16406 7.3125H8.20312C8.32031 7.3125 8.4375 7.3125 8.55469 7.25391C9.25781 6.84375 9.96094 6.43359 10.7812 6.14062C11.0742 6.02344 11.25 5.78906 11.25 5.49609V5.20312C11.25 4.85156 10.8984 4.5 10.5469 4.5H2.8125C1.23047 4.5 0 5.78906 0 7.3125V27.9375C0 29.5195 1.23047 30.75 2.8125 30.75H23.4375C24.9609 30.75 26.25 29.5195 26.25 27.9375V25.4766C26.25 24.9492 25.6055 24.5977 25.1367 24.8906C24.7852 25.125 24.375 25.3008 23.9062 25.418Z" fill="white"/>
</svg>
